<svg id="visual" viewBox="0 0 960 540" width="960" height="540" xmlns="http://www.w3.org/2000/svg" xmlns:xlink="http://www.w3.org/1999/xlink" version="1.1"><g stroke-width="1" stroke-linejoin="bevel"><path d="M436 270L384 277L450 330Z" fill="#ddeaf6" stroke="#ddeaf6"></path><path d="M384 277L358 326L450 330Z" fill="#ebf1f8" stroke="#ebf1f8"></path><path d="M403 380L450 370L450 330Z" fill="#ddeaf6" stroke="#ddeaf6"></path><path d="M358 326L403 380L450 330Z" fill="#ebf1f8" stroke="#ebf1f8"></path><path d="M372 206L340 248L384 277Z" fill="#e0ebf7" stroke="#e0ebf7"></path><path d="M384 277L340 248L358 326Z" fill="#e8eff8" stroke="#e8eff8"></path><path d="M279 308L342 379L358 326Z" fill="#e6eff7" stroke="#e6eff7"></path><path d="M358 326L342 379L403 380Z" fill="#e9f0f8" stroke="#e9f0f8"></path><path d="M407 194L372 206L384 277Z" fill="#e8eff8" stroke="#e8eff8"></path><path d="M436 270L407 194L384 277Z" fill="#deebf6" stroke="#deebf6"></path><path d="M342 379L366 419L403 380Z" fill="#ebf1f8" stroke="#ebf1f8"></path><path d="M403 380L445 433L450 370Z" fill="#e9f0f8" stroke="#e9f0f8"></path><path d="M432 451L445 433L403 380Z" fill="#e6eff7" stroke="#e6eff7"></path><path d="M450 370L532 369L450 330Z" fill="#deebf6" stroke="#deebf6"></path><path d="M450 330L557 305L436 270Z" fill="#e1ecf7" stroke="#e1ecf7"></path><path d="M436 270L559 259L407 194Z" fill="#ebf1f8" stroke="#ebf1f8"></path><path d="M445 433L532 369L450 370Z" fill="#e3edf7" stroke="#e3edf7"></path><path d="M212 292L279 308L232 203Z" fill="#e6eff7" stroke="#e6eff7"></path><path d="M340 248L279 308L358 326Z" fill="#ddeaf6" stroke="#ddeaf6"></path><path d="M342 379L332 421L366 419Z" fill="#e5eef7" stroke="#e5eef7"></path><path d="M532 369L549 325L450 330Z" fill="#e1ecf7" stroke="#e1ecf7"></path><path d="M263 437L332 421L342 379Z" fill="#e6eff7" stroke="#e6eff7"></path><path d="M366 419L432 451L403 380Z" fill="#ebf1f8" stroke="#ebf1f8"></path><path d="M603 339L557 305L549 325Z" fill="#e0ebf7" stroke="#e0ebf7"></path><path d="M549 325L557 305L450 330Z" fill="#e0ebf7" stroke="#e0ebf7"></path><path d="M363 485L432 451L366 419Z" fill="#dbe9f6" stroke="#dbe9f6"></path><path d="M588 382L572 366L532 369Z" fill="#e3edf7" stroke="#e3edf7"></path><path d="M557 305L559 259L436 270Z" fill="#e6eff7" stroke="#e6eff7"></path><path d="M588 382L532 369L481 520Z" fill="#e5eef7" stroke="#e5eef7"></path><path d="M532 369L572 366L549 325Z" fill="#e1ecf7" stroke="#e1ecf7"></path><path d="M557 305L614 236L559 259Z" fill="#e6eff7" stroke="#e6eff7"></path><path d="M332 421L363 485L366 419Z" fill="#ddeaf6" stroke="#ddeaf6"></path><path d="M493 103L420 120L407 194Z" fill="#e5eef7" stroke="#e5eef7"></path><path d="M407 194L420 120L372 206Z" fill="#e8eff8" stroke="#e8eff8"></path><path d="M232 203L279 308L340 248Z" fill="#e6eff7" stroke="#e6eff7"></path><path d="M481 520L532 369L445 433Z" fill="#ebf1f8" stroke="#ebf1f8"></path><path d="M572 366L603 339L549 325Z" fill="#e8eff8" stroke="#e8eff8"></path><path d="M617 378L588 382L657 394Z" fill="#e8eff8" stroke="#e8eff8"></path><path d="M588 382L603 339L572 366Z" fill="#e0ebf7" stroke="#e0ebf7"></path><path d="M279 308L263 437L342 379Z" fill="#e8eff8" stroke="#e8eff8"></path><path d="M332 421L277 457L363 485Z" fill="#e5eef7" stroke="#e5eef7"></path><path d="M232 203L340 248L264 149Z" fill="#e0ebf7" stroke="#e0ebf7"></path><path d="M279 308L199 354L263 437Z" fill="#e9f0f8" stroke="#e9f0f8"></path><path d="M263 437L277 457L332 421Z" fill="#dbe9f6" stroke="#dbe9f6"></path><path d="M212 292L209 300L279 308Z" fill="#e9f0f8" stroke="#e9f0f8"></path><path d="M264 149L340 248L372 206Z" fill="#ebf1f8" stroke="#ebf1f8"></path><path d="M212 292L189 261L209 300Z" fill="#e9f0f8" stroke="#e9f0f8"></path><path d="M603 339L614 236L557 305Z" fill="#e6eff7" stroke="#e6eff7"></path><path d="M503 107L493 103L407 194Z" fill="#e6eff7" stroke="#e6eff7"></path><path d="M420 120L295 130L372 206Z" fill="#dbe9f6" stroke="#dbe9f6"></path><path d="M481 520L445 433L432 451Z" fill="#e5eef7" stroke="#e5eef7"></path><path d="M588 382L617 378L603 339Z" fill="#e6eff7" stroke="#e6eff7"></path><path d="M603 339L631 335L614 236Z" fill="#e5eef7" stroke="#e5eef7"></path><path d="M295 130L264 149L372 206Z" fill="#e6eff7" stroke="#e6eff7"></path><path d="M503 107L407 194L559 259Z" fill="#ddeaf6" stroke="#ddeaf6"></path><path d="M420 120L298 105L295 130Z" fill="#e5eef7" stroke="#e5eef7"></path><path d="M617 378L631 335L603 339Z" fill="#dbe9f6" stroke="#dbe9f6"></path><path d="M559 119L503 107L559 259Z" fill="#e3edf7" stroke="#e3edf7"></path><path d="M195 337L199 354L279 308Z" fill="#e5eef7" stroke="#e5eef7"></path><path d="M258 542L288 540L277 457Z" fill="#e3edf7" stroke="#e3edf7"></path><path d="M493 103L457 90L420 120Z" fill="#dbe9f6" stroke="#dbe9f6"></path><path d="M209 300L195 337L279 308Z" fill="#e0ebf7" stroke="#e0ebf7"></path><path d="M189 261L195 337L209 300Z" fill="#dbe9f6" stroke="#dbe9f6"></path><path d="M410 558L481 520L432 451Z" fill="#e0ebf7" stroke="#e0ebf7"></path><path d="M139 215L189 261L232 203Z" fill="#e3edf7" stroke="#e3edf7"></path><path d="M232 203L189 261L212 292Z" fill="#dbe9f6" stroke="#dbe9f6"></path><path d="M371 34L298 105L420 120Z" fill="#ebf1f8" stroke="#ebf1f8"></path><path d="M295 130L298 105L264 149Z" fill="#e8eff8" stroke="#e8eff8"></path><path d="M405 49L424 70L408 27Z" fill="#e1ecf7" stroke="#e1ecf7"></path><path d="M457 90L424 70L420 120Z" fill="#e0ebf7" stroke="#e0ebf7"></path><path d="M424 70L416 14L408 27Z" fill="#e6eff7" stroke="#e6eff7"></path><path d="M596 154L559 119L559 259Z" fill="#e9f0f8" stroke="#e9f0f8"></path><path d="M424 70L457 90L441 0Z" fill="#e3edf7" stroke="#e3edf7"></path><path d="M315 540L373 540L363 485Z" fill="#e9f0f8" stroke="#e9f0f8"></path><path d="M363 485L410 558L432 451Z" fill="#e5eef7" stroke="#e5eef7"></path><path d="M614 236L596 154L559 259Z" fill="#e9f0f8" stroke="#e9f0f8"></path><path d="M185 383L199 354L195 337Z" fill="#e0ebf7" stroke="#e0ebf7"></path><path d="M185 383L193 396L199 354Z" fill="#e6eff7" stroke="#e6eff7"></path><path d="M199 354L193 396L263 437Z" fill="#e8eff8" stroke="#e8eff8"></path><path d="M277 457L315 540L363 485Z" fill="#e3edf7" stroke="#e3edf7"></path><path d="M621 88L602 155L673 138Z" fill="#e9f0f8" stroke="#e9f0f8"></path><path d="M614 236L602 155L596 154Z" fill="#dbe9f6" stroke="#dbe9f6"></path><path d="M596 154L586 123L559 119Z" fill="#e6eff7" stroke="#e6eff7"></path><path d="M132 406L185 383L89 357Z" fill="#e8eff8" stroke="#e8eff8"></path><path d="M410 558L478 540L481 520Z" fill="#e1ecf7" stroke="#e1ecf7"></path><path d="M481 520L585 540L588 382Z" fill="#ebf1f8" stroke="#ebf1f8"></path><path d="M478 540L498 540L481 520Z" fill="#ebf1f8" stroke="#ebf1f8"></path><path d="M602 155L586 123L596 154Z" fill="#e0ebf7" stroke="#e0ebf7"></path><path d="M424 70L441 0L416 14Z" fill="#deebf6" stroke="#deebf6"></path><path d="M373 540L410 558L363 485Z" fill="#dbe9f6" stroke="#dbe9f6"></path><path d="M478 540L410 558L498 540Z" fill="#e8eff8" stroke="#e8eff8"></path><path d="M288 540L315 540L277 457Z" fill="#dbe9f6" stroke="#dbe9f6"></path><path d="M373 540L315 540L410 558Z" fill="#e9f0f8" stroke="#e9f0f8"></path><path d="M617 378L666 344L631 335Z" fill="#e8eff8" stroke="#e8eff8"></path><path d="M631 335L666 344L614 236Z" fill="#dbe9f6" stroke="#dbe9f6"></path><path d="M657 394L666 344L617 378Z" fill="#e1ecf7" stroke="#e1ecf7"></path><path d="M605 533L657 394L588 382Z" fill="#e1ecf7" stroke="#e1ecf7"></path><path d="M509 10L441 0L457 90Z" fill="#e1ecf7" stroke="#e1ecf7"></path><path d="M424 70L405 49L420 120Z" fill="#ebf1f8" stroke="#ebf1f8"></path><path d="M371 34L281 79L298 105Z" fill="#ddeaf6" stroke="#ddeaf6"></path><path d="M298 105L281 79L264 149Z" fill="#ddeaf6" stroke="#ddeaf6"></path><path d="M264 149L206 118L232 203Z" fill="#e9f0f8" stroke="#e9f0f8"></path><path d="M258 542L277 457L239 540Z" fill="#deebf6" stroke="#deebf6"></path><path d="M315 540L288 540L410 558Z" fill="#e1ecf7" stroke="#e1ecf7"></path><path d="M405 49L371 34L420 120Z" fill="#dbe9f6" stroke="#dbe9f6"></path><path d="M408 27L371 34L405 49Z" fill="#ebf1f8" stroke="#ebf1f8"></path><path d="M493 103L509 10L457 90Z" fill="#e8eff8" stroke="#e8eff8"></path><path d="M218 80L206 118L264 149Z" fill="#dbe9f6" stroke="#dbe9f6"></path><path d="M239 540L263 437L139 504Z" fill="#ddeaf6" stroke="#ddeaf6"></path><path d="M239 540L277 457L263 437Z" fill="#e6eff7" stroke="#e6eff7"></path><path d="M288 540L258 542L410 558Z" fill="#deebf6" stroke="#deebf6"></path><path d="M637 562L585 540L498 540Z" fill="#e8eff8" stroke="#e8eff8"></path><path d="M498 540L585 540L481 520Z" fill="#e0ebf7" stroke="#e0ebf7"></path><path d="M151 160L139 215L232 203Z" fill="#dbe9f6" stroke="#dbe9f6"></path><path d="M189 261L96 269L195 337Z" fill="#deebf6" stroke="#deebf6"></path><path d="M139 504L263 437L193 396Z" fill="#dbe9f6" stroke="#dbe9f6"></path><path d="M509 10L503 107L559 119Z" fill="#e3edf7" stroke="#e3edf7"></path><path d="M408 27L416 14L371 34Z" fill="#e3edf7" stroke="#e3edf7"></path><path d="M585 540L605 533L588 382Z" fill="#e8eff8" stroke="#e8eff8"></path><path d="M89 357L185 383L195 337Z" fill="#e9f0f8" stroke="#e9f0f8"></path><path d="M185 383L133 410L193 396Z" fill="#e8eff8" stroke="#e8eff8"></path><path d="M132 406L133 410L185 383Z" fill="#e6eff7" stroke="#e6eff7"></path><path d="M281 79L218 80L264 149Z" fill="#ddeaf6" stroke="#ddeaf6"></path><path d="M206 118L151 160L232 203Z" fill="#e1ecf7" stroke="#e1ecf7"></path><path d="M331 0L218 80L281 79Z" fill="#deebf6" stroke="#deebf6"></path><path d="M331 0L281 79L371 34Z" fill="#e8eff8" stroke="#e8eff8"></path><path d="M602 155L621 88L586 123Z" fill="#e6eff7" stroke="#e6eff7"></path><path d="M586 123L621 88L559 119Z" fill="#e8eff8" stroke="#e8eff8"></path><path d="M673 138L602 155L614 236Z" fill="#e0ebf7" stroke="#e0ebf7"></path><path d="M159 104L151 160L206 118Z" fill="#ddeaf6" stroke="#ddeaf6"></path><path d="M637 562L610 540L585 540Z" fill="#e0ebf7" stroke="#e0ebf7"></path><path d="M585 540L610 540L605 533Z" fill="#e3edf7" stroke="#e3edf7"></path><path d="M605 533L727 473L657 394Z" fill="#e3edf7" stroke="#e3edf7"></path><path d="M730 312L614 236L666 344Z" fill="#deebf6" stroke="#deebf6"></path><path d="M722 226L706 212L614 236Z" fill="#e9f0f8" stroke="#e9f0f8"></path><path d="M509 10L493 103L503 107Z" fill="#e8eff8" stroke="#e8eff8"></path><path d="M416 14L351 0L371 34Z" fill="#e8eff8" stroke="#e8eff8"></path><path d="M706 212L673 138L614 236Z" fill="#e3edf7" stroke="#e3edf7"></path><path d="M529 0L509 10L557 0Z" fill="#e8eff8" stroke="#e8eff8"></path><path d="M441 0L351 0L416 14Z" fill="#e5eef7" stroke="#e5eef7"></path><path d="M727 375L666 344L657 394Z" fill="#e8eff8" stroke="#e8eff8"></path><path d="M727 375L730 312L666 344Z" fill="#e6eff7" stroke="#e6eff7"></path><path d="M351 0L331 0L371 34Z" fill="#e1ecf7" stroke="#e1ecf7"></path><path d="M730 312L722 226L614 236Z" fill="#e9f0f8" stroke="#e9f0f8"></path><path d="M706 212L721 150L673 138Z" fill="#e8eff8" stroke="#e8eff8"></path><path d="M727 473L727 375L657 394Z" fill="#dbe9f6" stroke="#dbe9f6"></path><path d="M41 232L96 269L139 215Z" fill="#e0ebf7" stroke="#e0ebf7"></path><path d="M139 215L96 269L189 261Z" fill="#e0ebf7" stroke="#e0ebf7"></path><path d="M132 406L41 471L133 410Z" fill="#e3edf7" stroke="#e3edf7"></path><path d="M159 104L120 169L151 160Z" fill="#e3edf7" stroke="#e3edf7"></path><path d="M151 160L120 169L139 215Z" fill="#ddeaf6" stroke="#ddeaf6"></path><path d="M156 0L159 104L218 80Z" fill="#e9f0f8" stroke="#e9f0f8"></path><path d="M218 80L159 104L206 118Z" fill="#e8eff8" stroke="#e8eff8"></path><path d="M557 0L509 10L559 119Z" fill="#ddeaf6" stroke="#ddeaf6"></path><path d="M509 10L529 0L441 0Z" fill="#e0ebf7" stroke="#e0ebf7"></path><path d="M96 269L89 357L195 337Z" fill="#e3edf7" stroke="#e3edf7"></path><path d="M133 410L139 504L193 396Z" fill="#e9f0f8" stroke="#e9f0f8"></path><path d="M602 0L557 0L621 88Z" fill="#e1ecf7" stroke="#e1ecf7"></path><path d="M621 88L557 0L559 119Z" fill="#ddeaf6" stroke="#ddeaf6"></path><path d="M727 375L753 302L730 312Z" fill="#e9f0f8" stroke="#e9f0f8"></path><path d="M730 312L756 286L722 226Z" fill="#ebf1f8" stroke="#ebf1f8"></path><path d="M410 558L637 562L498 540Z" fill="#e3edf7" stroke="#e3edf7"></path><path d="M710 540L727 473L605 533Z" fill="#e1ecf7" stroke="#e1ecf7"></path><path d="M41 471L139 504L133 410Z" fill="#e5eef7" stroke="#e5eef7"></path><path d="M753 302L756 286L730 312Z" fill="#e1ecf7" stroke="#e1ecf7"></path><path d="M683 46L643 51L673 138Z" fill="#e8eff8" stroke="#e8eff8"></path><path d="M673 138L643 51L621 88Z" fill="#e3edf7" stroke="#e3edf7"></path><path d="M721 150L706 212L759 200Z" fill="#e8eff8" stroke="#e8eff8"></path><path d="M759 200L706 212L722 226Z" fill="#e5eef7" stroke="#e5eef7"></path><path d="M768 287L765 276L756 286Z" fill="#e5eef7" stroke="#e5eef7"></path><path d="M756 286L765 276L722 226Z" fill="#e0ebf7" stroke="#e0ebf7"></path><path d="M768 287L756 286L753 302Z" fill="#e8eff8" stroke="#e8eff8"></path><path d="M710 540L605 533L610 540Z" fill="#e1ecf7" stroke="#e1ecf7"></path><path d="M838 324L768 287L753 302Z" fill="#e0ebf7" stroke="#e0ebf7"></path><path d="M838 324L753 302L727 375Z" fill="#dbe9f6" stroke="#dbe9f6"></path><path d="M96 269L60 333L89 357Z" fill="#e1ecf7" stroke="#e1ecf7"></path><path d="M89 357L41 471L132 406Z" fill="#e8eff8" stroke="#e8eff8"></path><path d="M0 261L60 333L96 269Z" fill="#e9f0f8" stroke="#e9f0f8"></path><path d="M643 51L602 0L621 88Z" fill="#ddeaf6" stroke="#ddeaf6"></path><path d="M765 276L759 200L722 226Z" fill="#e6eff7" stroke="#e6eff7"></path><path d="M799 177L759 200L765 276Z" fill="#deebf6" stroke="#deebf6"></path><path d="M740 65L683 46L673 138Z" fill="#ddeaf6" stroke="#ddeaf6"></path><path d="M643 51L636 0L602 0Z" fill="#ddeaf6" stroke="#ddeaf6"></path><path d="M740 65L673 138L721 150Z" fill="#dbe9f6" stroke="#dbe9f6"></path><path d="M637 562L710 540L610 540Z" fill="#e5eef7" stroke="#e5eef7"></path><path d="M665 0L636 0L643 51Z" fill="#e1ecf7" stroke="#e1ecf7"></path><path d="M159 104L69 147L120 169Z" fill="#dbe9f6" stroke="#dbe9f6"></path><path d="M120 169L41 232L139 215Z" fill="#ebf1f8" stroke="#ebf1f8"></path><path d="M71 58L69 147L159 104Z" fill="#dbe9f6" stroke="#dbe9f6"></path><path d="M69 147L41 232L120 169Z" fill="#e8eff8" stroke="#e8eff8"></path><path d="M637 562L727 540L710 540Z" fill="#e5eef7" stroke="#e5eef7"></path><path d="M710 540L727 540L727 473Z" fill="#ebf1f8" stroke="#ebf1f8"></path><path d="M727 473L790 470L727 375Z" fill="#e8eff8" stroke="#e8eff8"></path><path d="M788 0L665 0L683 46Z" fill="#ddeaf6" stroke="#ddeaf6"></path><path d="M683 46L665 0L643 51Z" fill="#e6eff7" stroke="#e6eff7"></path><path d="M331 0L156 0L218 80Z" fill="#e6eff7" stroke="#e6eff7"></path><path d="M798 103L740 65L721 150Z" fill="#ddeaf6" stroke="#ddeaf6"></path><path d="M847 184L799 177L765 276Z" fill="#e6eff7" stroke="#e6eff7"></path><path d="M759 200L799 177L721 150Z" fill="#e8eff8" stroke="#e8eff8"></path><path d="M866 279L765 276L768 287Z" fill="#e5eef7" stroke="#e5eef7"></path><path d="M0 349L89 357L60 333Z" fill="#e8eff8" stroke="#e8eff8"></path><path d="M0 349L41 471L89 357Z" fill="#e6eff7" stroke="#e6eff7"></path><path d="M139 504L69 540L239 540Z" fill="#e1ecf7" stroke="#e1ecf7"></path><path d="M727 540L790 470L727 473Z" fill="#e3edf7" stroke="#e3edf7"></path><path d="M156 0L137 0L159 104Z" fill="#e3edf7" stroke="#e3edf7"></path><path d="M0 261L0 325L60 333Z" fill="#e8eff8" stroke="#e8eff8"></path><path d="M0 261L96 269L41 232Z" fill="#e1ecf7" stroke="#e1ecf7"></path><path d="M0 325L0 349L60 333Z" fill="#dbe9f6" stroke="#dbe9f6"></path><path d="M41 471L69 540L139 504Z" fill="#e1ecf7" stroke="#e1ecf7"></path><path d="M239 540L69 540L258 542Z" fill="#e8eff8" stroke="#e8eff8"></path><path d="M258 542L69 540L410 558Z" fill="#e3edf7" stroke="#e3edf7"></path><path d="M0 196L41 232L69 147Z" fill="#ebf1f8" stroke="#ebf1f8"></path><path d="M0 196L0 261L41 232Z" fill="#e6eff7" stroke="#e6eff7"></path><path d="M0 261L-6 318L0 325Z" fill="#e8eff8" stroke="#e8eff8"></path><path d="M0 325L-6 318L0 349Z" fill="#e0ebf7" stroke="#e0ebf7"></path><path d="M867 374L838 324L727 375Z" fill="#e9f0f8" stroke="#e9f0f8"></path><path d="M120 0L71 58L159 104Z" fill="#e6eff7" stroke="#e6eff7"></path><path d="M818 548L813 453L790 470Z" fill="#e5eef7" stroke="#e5eef7"></path><path d="M790 470L813 453L727 375Z" fill="#e9f0f8" stroke="#e9f0f8"></path><path d="M137 0L120 0L159 104Z" fill="#e8eff8" stroke="#e8eff8"></path><path d="M0 120L0 196L69 147Z" fill="#e1ecf7" stroke="#e1ecf7"></path><path d="M0 261L0 196L-6 318Z" fill="#ddeaf6" stroke="#ddeaf6"></path><path d="M861 124L798 103L799 177Z" fill="#e0ebf7" stroke="#e0ebf7"></path><path d="M799 177L798 103L721 150Z" fill="#e8eff8" stroke="#e8eff8"></path><path d="M740 65L788 0L683 46Z" fill="#dbe9f6" stroke="#dbe9f6"></path><path d="M866 279L847 184L765 276Z" fill="#e6eff7" stroke="#e6eff7"></path><path d="M867 374L866 279L838 324Z" fill="#ddeaf6" stroke="#ddeaf6"></path><path d="M838 324L866 279L768 287Z" fill="#e0ebf7" stroke="#e0ebf7"></path><path d="M0 84L69 147L71 58Z" fill="#e6eff7" stroke="#e6eff7"></path><path d="M0 84L0 120L69 147Z" fill="#e3edf7" stroke="#e3edf7"></path><path d="M0 196L0 120L-6 318Z" fill="#e3edf7" stroke="#e3edf7"></path><path d="M813 453L867 374L727 375Z" fill="#e0ebf7" stroke="#e0ebf7"></path><path d="M137 0L80 -11L120 0Z" fill="#deebf6" stroke="#deebf6"></path><path d="M120 0L80 -11L71 58Z" fill="#e8eff8" stroke="#e8eff8"></path><path d="M156 0L80 -11L137 0Z" fill="#e3edf7" stroke="#e3edf7"></path><path d="M331 0L80 -11L156 0Z" fill="#e9f0f8" stroke="#e9f0f8"></path><path d="M351 0L80 -11L331 0Z" fill="#ebf1f8" stroke="#ebf1f8"></path><path d="M833 -37L80 -11L351 0Z" fill="#dbe9f6" stroke="#dbe9f6"></path><path d="M833 -37L351 0L441 0Z" fill="#dbe9f6" stroke="#dbe9f6"></path><path d="M833 -37L441 0L529 0Z" fill="#e5eef7" stroke="#e5eef7"></path><path d="M833 -37L529 0L557 0Z" fill="#e9f0f8" stroke="#e9f0f8"></path><path d="M833 -37L557 0L602 0Z" fill="#deebf6" stroke="#deebf6"></path><path d="M833 -37L602 0L636 0Z" fill="#e8eff8" stroke="#e8eff8"></path><path d="M41 471L0 510L69 540Z" fill="#e6eff7" stroke="#e6eff7"></path><path d="M0 349L0 510L41 471Z" fill="#e0ebf7" stroke="#e0ebf7"></path><path d="M-6 318L0 510L0 349Z" fill="#ebf1f8" stroke="#ebf1f8"></path><path d="M870 540L867 418L813 453Z" fill="#ddeaf6" stroke="#ddeaf6"></path><path d="M813 453L867 418L867 374Z" fill="#ebf1f8" stroke="#ebf1f8"></path><path d="M637 562L818 548L727 540Z" fill="#deebf6" stroke="#deebf6"></path><path d="M727 540L818 548L790 470Z" fill="#e6eff7" stroke="#e6eff7"></path><path d="M0 0L0 84L71 58Z" fill="#deebf6" stroke="#deebf6"></path><path d="M0 120L0 84L-6 318Z" fill="#deebf6" stroke="#deebf6"></path><path d="M-5 540L0 536L0 510Z" fill="#e8eff8" stroke="#e8eff8"></path><path d="M0 510L0 536L69 540Z" fill="#dbe9f6" stroke="#dbe9f6"></path><path d="M-5 540L0 540L0 536Z" fill="#e1ecf7" stroke="#e1ecf7"></path><path d="M0 536L0 540L69 540Z" fill="#e0ebf7" stroke="#e0ebf7"></path><path d="M69 540L0 540L410 558Z" fill="#e1ecf7" stroke="#e1ecf7"></path><path d="M-6 318L-5 540L0 510Z" fill="#e9f0f8" stroke="#e9f0f8"></path><path d="M0 540L-5 540L410 558Z" fill="#ddeaf6" stroke="#ddeaf6"></path><path d="M960 161L861 124L847 184Z" fill="#e8eff8" stroke="#e8eff8"></path><path d="M847 184L861 124L799 177Z" fill="#ebf1f8" stroke="#ebf1f8"></path><path d="M798 103L788 0L740 65Z" fill="#ddeaf6" stroke="#ddeaf6"></path><path d="M814 0L788 0L798 103Z" fill="#ebf1f8" stroke="#ebf1f8"></path><path d="M665 0L833 -37L636 0Z" fill="#ebf1f8" stroke="#ebf1f8"></path><path d="M960 315L902 250L866 279Z" fill="#ebf1f8" stroke="#ebf1f8"></path><path d="M866 279L902 250L847 184Z" fill="#ddeaf6" stroke="#ddeaf6"></path><path d="M960 315L866 279L960 333Z" fill="#e5eef7" stroke="#e5eef7"></path><path d="M867 418L903 387L867 374Z" fill="#e9f0f8" stroke="#e9f0f8"></path><path d="M960 420L903 387L867 418Z" fill="#e9f0f8" stroke="#e9f0f8"></path><path d="M836 0L814 0L798 103Z" fill="#ebf1f8" stroke="#ebf1f8"></path><path d="M788 0L833 -37L665 0Z" fill="#e6eff7" stroke="#e6eff7"></path><path d="M818 548L870 540L813 453Z" fill="#deebf6" stroke="#deebf6"></path><path d="M80 -11L0 0L71 58Z" fill="#e1ecf7" stroke="#e1ecf7"></path><path d="M0 84L0 0L-6 318Z" fill="#e9f0f8" stroke="#e9f0f8"></path><path d="M818 548L877 540L870 540Z" fill="#ddeaf6" stroke="#ddeaf6"></path><path d="M870 540L877 540L867 418Z" fill="#e3edf7" stroke="#e3edf7"></path><path d="M888 85L798 103L861 124Z" fill="#ddeaf6" stroke="#ddeaf6"></path><path d="M888 85L836 0L798 103Z" fill="#e6eff7" stroke="#e6eff7"></path><path d="M814 0L833 -37L788 0Z" fill="#e9f0f8" stroke="#e9f0f8"></path><path d="M960 161L888 85L861 124Z" fill="#e3edf7" stroke="#e3edf7"></path><path d="M960 0L833 -37L836 0Z" fill="#ebf1f8" stroke="#ebf1f8"></path><path d="M836 0L833 -37L814 0Z" fill="#ebf1f8" stroke="#ebf1f8"></path><path d="M960 333L866 279L867 374Z" fill="#e1ecf7" stroke="#e1ecf7"></path><path d="M902 250L960 200L847 184Z" fill="#ebf1f8" stroke="#ebf1f8"></path><path d="M960 333L867 374L903 387Z" fill="#ddeaf6" stroke="#ddeaf6"></path><path d="M960 420L960 333L903 387Z" fill="#e8eff8" stroke="#e8eff8"></path><path d="M960 315L960 212L902 250Z" fill="#ddeaf6" stroke="#ddeaf6"></path><path d="M888 85L960 32L836 0Z" fill="#e8eff8" stroke="#e8eff8"></path><path d="M960 212L960 200L902 250Z" fill="#e0ebf7" stroke="#e0ebf7"></path><path d="M960 459L960 420L867 418Z" fill="#e3edf7" stroke="#e3edf7"></path><path d="M960 212L966 203L960 200Z" fill="#deebf6" stroke="#deebf6"></path><path d="M960 200L960 161L847 184Z" fill="#e3edf7" stroke="#e3edf7"></path><path d="M981 204L966 203L960 212Z" fill="#e0ebf7" stroke="#e0ebf7"></path><path d="M981 204L960 212L960 315Z" fill="#e9f0f8" stroke="#e9f0f8"></path><path d="M981 204L960 315L960 333Z" fill="#e5eef7" stroke="#e5eef7"></path><path d="M966 203L960 161L960 200Z" fill="#e3edf7" stroke="#e3edf7"></path><path d="M877 540L960 459L867 418Z" fill="#e1ecf7" stroke="#e1ecf7"></path><path d="M960 420L981 204L960 333Z" fill="#ebf1f8" stroke="#ebf1f8"></path><path d="M960 459L981 204L960 420Z" fill="#e9f0f8" stroke="#e9f0f8"></path><path d="M966 203L981 204L960 161Z" fill="#e8eff8" stroke="#e8eff8"></path><path d="M877 540L960 540L960 459Z" fill="#e6eff7" stroke="#e6eff7"></path><path d="M960 459L960 540L981 204Z" fill="#e9f0f8" stroke="#e9f0f8"></path><path d="M818 548L960 540L877 540Z" fill="#e0ebf7" stroke="#e0ebf7"></path><path d="M637 562L960 540L818 548Z" fill="#e8eff8" stroke="#e8eff8"></path><path d="M981 204L960 32L960 161Z" fill="#deebf6" stroke="#deebf6"></path><path d="M960 161L960 32L888 85Z" fill="#e6eff7" stroke="#e6eff7"></path><path d="M981 204L960 0L960 32Z" fill="#ebf1f8" stroke="#ebf1f8"></path><path d="M960 32L960 0L836 0Z" fill="#e8eff8" stroke="#e8eff8"></path></g></svg>