<svg id="visual" viewBox="0 0 960 540" width="960" height="540" xmlns="http://www.w3.org/2000/svg" xmlns:xlink="http://www.w3.org/1999/xlink" version="1.1"><rect x="0" y="0" width="960" height="540" fill="#000000"></rect><path d="M711 540L709.8 531.8C708.7 523.7 706.3 507.3 699.7 491C693 474.7 682 458.3 679.3 442C676.7 425.7 682.3 409.3 692.5 393C702.7 376.7 717.3 360.3 713.5 344C709.7 327.7 687.3 311.3 683.2 294.8C679 278.3 693 261.7 698.5 245.2C704 228.7 701 212.3 692.7 196C684.3 179.7 670.7 163.3 668.8 147C667 130.7 677 114.3 680 98C683 81.7 679 65.3 684.7 49C690.3 32.7 705.7 16.3 713.3 8.2L721 0L960 0L960 8.2C960 16.3 960 32.7 960 49C960 65.3 960 81.7 960 98C960 114.3 960 130.7 960 147C960 163.3 960 179.7 960 196C960 212.3 960 228.7 960 245.2C960 261.7 960 278.3 960 294.8C960 311.3 960 327.7 960 344C960 360.3 960 376.7 960 393C960 409.3 960 425.7 960 442C960 458.3 960 474.7 960 491C960 507.3 960 523.7 960 531.8L960 540Z" fill="#112334"></path><path d="M688 540L691.3 531.8C694.7 523.7 701.3 507.3 707.2 491C713 474.7 718 458.3 721.3 442C724.7 425.7 726.3 409.3 728.7 393C731 376.7 734 360.3 727.8 344C721.7 327.7 706.3 311.3 701.5 294.8C696.7 278.3 702.3 261.7 707 245.2C711.7 228.7 715.3 212.3 713.2 196C711 179.7 703 163.3 703 147C703 130.7 711 114.3 717 98C723 81.7 727 65.3 725.7 49C724.3 32.7 717.7 16.3 714.3 8.2L711 0L960 0L960 8.2C960 16.3 960 32.7 960 49C960 65.3 960 81.7 960 98C960 114.3 960 130.7 960 147C960 163.3 960 179.7 960 196C960 212.3 960 228.7 960 245.2C960 261.7 960 278.3 960 294.8C960 311.3 960 327.7 960 344C960 360.3 960 376.7 960 393C960 409.3 960 425.7 960 442C960 458.3 960 474.7 960 491C960 507.3 960 523.7 960 531.8L960 540Z" fill="#0e2131"></path><path d="M695 540L698.8 531.8C702.7 523.7 710.3 507.3 717.2 491C724 474.7 730 458.3 732.7 442C735.3 425.7 734.7 409.3 735 393C735.3 376.7 736.7 360.3 741.3 344C746 327.7 754 311.3 752.3 294.8C750.7 278.3 739.3 261.7 740.5 245.2C741.7 228.7 755.3 212.3 755.3 196C755.3 179.7 741.7 163.3 735.5 147C729.3 130.7 730.7 114.3 726.8 98C723 81.7 714 65.3 717 49C720 32.7 735 16.3 742.5 8.2L750 0L960 0L960 8.2C960 16.3 960 32.7 960 49C960 65.3 960 81.7 960 98C960 114.3 960 130.7 960 147C960 163.3 960 179.7 960 196C960 212.3 960 228.7 960 245.2C960 261.7 960 278.3 960 294.8C960 311.3 960 327.7 960 344C960 360.3 960 376.7 960 393C960 409.3 960 425.7 960 442C960 458.3 960 474.7 960 491C960 507.3 960 523.7 960 531.8L960 540Z" fill="#0b1e2f"></path><path d="M724 540L723.7 531.8C723.3 523.7 722.7 507.3 733.3 491C744 474.7 766 458.3 766.3 442C766.7 425.7 745.3 409.3 744.8 393C744.3 376.7 764.7 360.3 772.2 344C779.7 327.7 774.3 311.3 769.8 294.8C765.3 278.3 761.7 261.7 755 245.2C748.3 228.7 738.7 212.3 742.5 196C746.3 179.7 763.7 163.3 766.2 147C768.7 130.7 756.3 114.3 755.8 98C755.3 81.7 766.7 65.3 766.8 49C767 32.7 756 16.3 750.5 8.2L745 0L960 0L960 8.2C960 16.3 960 32.7 960 49C960 65.3 960 81.7 960 98C960 114.3 960 130.7 960 147C960 163.3 960 179.7 960 196C960 212.3 960 228.7 960 245.2C960 261.7 960 278.3 960 294.8C960 311.3 960 327.7 960 344C960 360.3 960 376.7 960 393C960 409.3 960 425.7 960 442C960 458.3 960 474.7 960 491C960 507.3 960 523.7 960 531.8L960 540Z" fill="#091c2c"></path><path d="M760 540L758 531.8C756 523.7 752 507.3 752.5 491C753 474.7 758 458.3 764.2 442C770.3 425.7 777.7 409.3 780.2 393C782.7 376.7 780.3 360.3 778.7 344C777 327.7 776 311.3 773 294.8C770 278.3 765 261.7 768.2 245.2C771.3 228.7 782.7 212.3 785.7 196C788.7 179.7 783.3 163.3 783.8 147C784.3 130.7 790.7 114.3 787.5 98C784.3 81.7 771.7 65.3 765.3 49C759 32.7 759 16.3 759 8.2L759 0L960 0L960 8.2C960 16.3 960 32.7 960 49C960 65.3 960 81.7 960 98C960 114.3 960 130.7 960 147C960 163.3 960 179.7 960 196C960 212.3 960 228.7 960 245.2C960 261.7 960 278.3 960 294.8C960 311.3 960 327.7 960 344C960 360.3 960 376.7 960 393C960 409.3 960 425.7 960 442C960 458.3 960 474.7 960 491C960 507.3 960 523.7 960 531.8L960 540Z" fill="#061a2a"></path><path d="M804 540L802.7 531.8C801.3 523.7 798.7 507.3 798.8 491C799 474.7 802 458.3 800.5 442C799 425.7 793 409.3 793.3 393C793.7 376.7 800.3 360.3 800.2 344C800 327.7 793 311.3 790.2 294.8C787.3 278.3 788.7 261.7 786 245.2C783.3 228.7 776.7 212.3 780.8 196C785 179.7 800 163.3 809.3 147C818.7 130.7 822.3 114.3 816.5 98C810.7 81.7 795.3 65.3 793.7 49C792 32.7 804 16.3 810 8.2L816 0L960 0L960 8.2C960 16.3 960 32.7 960 49C960 65.3 960 81.7 960 98C960 114.3 960 130.7 960 147C960 163.3 960 179.7 960 196C960 212.3 960 228.7 960 245.2C960 261.7 960 278.3 960 294.8C960 311.3 960 327.7 960 344C960 360.3 960 376.7 960 393C960 409.3 960 425.7 960 442C960 458.3 960 474.7 960 491C960 507.3 960 523.7 960 531.8L960 540Z" fill="#031727"></path><path d="M803 540L802.3 531.8C801.7 523.7 800.3 507.3 806 491C811.7 474.7 824.3 458.3 832.2 442C840 425.7 843 409.3 842.7 393C842.3 376.7 838.7 360.3 834 344C829.3 327.7 823.7 311.3 817.7 294.8C811.7 278.3 805.3 261.7 808.5 245.2C811.7 228.7 824.3 212.3 832.3 196C840.3 179.7 843.7 163.3 838.8 147C834 130.7 821 114.3 818.3 98C815.7 81.7 823.3 65.3 823.5 49C823.7 32.7 816.3 16.3 812.7 8.2L809 0L960 0L960 8.2C960 16.3 960 32.7 960 49C960 65.3 960 81.7 960 98C960 114.3 960 130.7 960 147C960 163.3 960 179.7 960 196C960 212.3 960 228.7 960 245.2C960 261.7 960 278.3 960 294.8C960 311.3 960 327.7 960 344C960 360.3 960 376.7 960 393C960 409.3 960 425.7 960 442C960 458.3 960 474.7 960 491C960 507.3 960 523.7 960 531.8L960 540Z" fill="#001525"></path><path d="M864 540L856.8 531.8C849.7 523.7 835.3 507.3 829.3 491C823.3 474.7 825.7 458.3 827 442C828.3 425.7 828.7 409.3 832.3 393C836 376.7 843 360.3 844.5 344C846 327.7 842 311.3 839 294.8C836 278.3 834 261.7 832.2 245.2C830.3 228.7 828.7 212.3 830.8 196C833 179.7 839 163.3 843 147C847 130.7 849 114.3 848.8 98C848.7 81.7 846.3 65.3 845.2 49C844 32.7 844 16.3 844 8.2L844 0L960 0L960 8.2C960 16.3 960 32.7 960 49C960 65.3 960 81.7 960 98C960 114.3 960 130.7 960 147C960 163.3 960 179.7 960 196C960 212.3 960 228.7 960 245.2C960 261.7 960 278.3 960 294.8C960 311.3 960 327.7 960 344C960 360.3 960 376.7 960 393C960 409.3 960 425.7 960 442C960 458.3 960 474.7 960 491C960 507.3 960 523.7 960 531.8L960 540Z" fill="#001222"></path><path d="M845 540L847.2 531.8C849.3 523.7 853.7 507.3 860.2 491C866.7 474.7 875.3 458.3 878.3 442C881.3 425.7 878.7 409.3 873 393C867.3 376.7 858.7 360.3 854.5 344C850.3 327.7 850.7 311.3 851.5 294.8C852.3 278.3 853.7 261.7 855 245.2C856.3 228.7 857.7 212.3 859.5 196C861.3 179.7 863.7 163.3 866.2 147C868.7 130.7 871.3 114.3 873.2 98C875 81.7 876 65.3 875.5 49C875 32.7 873 16.3 872 8.2L871 0L960 0L960 8.2C960 16.3 960 32.7 960 49C960 65.3 960 81.7 960 98C960 114.3 960 130.7 960 147C960 163.3 960 179.7 960 196C960 212.3 960 228.7 960 245.2C960 261.7 960 278.3 960 294.8C960 311.3 960 327.7 960 344C960 360.3 960 376.7 960 393C960 409.3 960 425.7 960 442C960 458.3 960 474.7 960 491C960 507.3 960 523.7 960 531.8L960 540Z" fill="#000f20"></path><path d="M894 540L895.7 531.8C897.3 523.7 900.7 507.3 900.5 491C900.3 474.7 896.7 458.3 892.2 442C887.7 425.7 882.3 409.3 882.3 393C882.3 376.7 887.7 360.3 886.8 344C886 327.7 879 311.3 877 294.8C875 278.3 878 261.7 881.2 245.2C884.3 228.7 887.7 212.3 891.5 196C895.3 179.7 899.7 163.3 901.2 147C902.7 130.7 901.3 114.3 901.5 98C901.7 81.7 903.3 65.3 899.7 49C896 32.7 887 16.3 882.5 8.2L878 0L960 0L960 8.2C960 16.3 960 32.7 960 49C960 65.3 960 81.7 960 98C960 114.3 960 130.7 960 147C960 163.3 960 179.7 960 196C960 212.3 960 228.7 960 245.2C960 261.7 960 278.3 960 294.8C960 311.3 960 327.7 960 344C960 360.3 960 376.7 960 393C960 409.3 960 425.7 960 442C960 458.3 960 474.7 960 491C960 507.3 960 523.7 960 531.8L960 540Z" fill="#000b1e"></path><path d="M907 540L908.8 531.8C910.7 523.7 914.3 507.3 916.3 491C918.3 474.7 918.7 458.3 915.7 442C912.7 425.7 906.3 409.3 904.2 393C902 376.7 904 360.3 907.2 344C910.3 327.7 914.7 311.3 913.5 294.8C912.3 278.3 905.7 261.7 901.7 245.2C897.7 228.7 896.3 212.3 900.3 196C904.3 179.7 913.7 163.3 918.5 147C923.3 130.7 923.7 114.3 923.3 98C923 81.7 922 65.3 920 49C918 32.7 915 16.3 913.5 8.2L912 0L960 0L960 8.2C960 16.3 960 32.7 960 49C960 65.3 960 81.7 960 98C960 114.3 960 130.7 960 147C960 163.3 960 179.7 960 196C960 212.3 960 228.7 960 245.2C960 261.7 960 278.3 960 294.8C960 311.3 960 327.7 960 344C960 360.3 960 376.7 960 393C960 409.3 960 425.7 960 442C960 458.3 960 474.7 960 491C960 507.3 960 523.7 960 531.8L960 540Z" fill="#00071b"></path><path d="M926 540L928.2 531.8C930.3 523.7 934.7 507.3 935.5 491C936.3 474.7 933.7 458.3 933.2 442C932.7 425.7 934.3 409.3 933.8 393C933.3 376.7 930.7 360.3 931.8 344C933 327.7 938 311.3 939.2 294.8C940.3 278.3 937.7 261.7 935.5 245.2C933.3 228.7 931.7 212.3 932.5 196C933.3 179.7 936.7 163.3 935.2 147C933.7 130.7 927.3 114.3 924.5 98C921.7 81.7 922.3 65.3 924 49C925.7 32.7 928.3 16.3 929.7 8.2L931 0L960 0L960 8.2C960 16.3 960 32.7 960 49C960 65.3 960 81.7 960 98C960 114.3 960 130.7 960 147C960 163.3 960 179.7 960 196C960 212.3 960 228.7 960 245.2C960 261.7 960 278.3 960 294.8C960 311.3 960 327.7 960 344C960 360.3 960 376.7 960 393C960 409.3 960 425.7 960 442C960 458.3 960 474.7 960 491C960 507.3 960 523.7 960 531.8L960 540Z" fill="#000000"></path></svg>